<svg xmlns="http://www.w3.org/2000/svg" width="150" height="30" fill="none" viewBox="0 0 150 30"><rect width="150" height="30" x="0" y="0" fill="#E5E5E5" rx="0" ry="0"/><rect width="150" height="30" x="0" y="0" fill="#fff" rx="0" ry="0"/><path fill="#fff" d="M2.96295 25.0731H26.1615V5.16648H2.96295V25.0731Z"/><path fill="#393536" d="M37.6352 20.3672C37.2122 20.3672 36.7467 20.3672 36.4298 20.302V8.61429C36.768 8.55079 37.2542 8.48533 37.9095 8.48533C40.8069 8.48533 42.6044 10.3498 42.6044 14.1232C42.6044 18.5031 40.6165 20.389 37.6352 20.3672V20.3672ZM37.5295 5.96932C35.9435 5.96932 34.4634 6.10006 33.3208 6.31702V22.708C34.1456 22.8178 35.3511 22.9266 36.8529 22.9266C39.6858 22.9266 41.9493 22.2531 43.4296 20.8884C44.6769 19.7377 45.8823 17.6576 45.8823 14.0781C45.8823 11.0643 44.9732 9.00451 43.4296 7.70487C42.0764 6.55596 40.2357 5.96932 37.5295 5.96932"/><path fill="#393536" d="M50.4377 15.4661C50.5222 14.2739 51.157 12.6695 52.6583 12.6695C54.202 12.6695 54.6889 14.2086 54.6676 15.4661H50.4377ZM52.8484 10.4367C49.4022 10.4367 47.456 13.4296 47.456 16.8981C47.456 20.6481 49.5285 22.9909 53.1664 22.9909C54.6257 22.9909 55.9995 22.7292 56.9728 22.2982L56.5284 20.085C55.7249 20.3672 54.8158 20.5842 53.6528 20.5842C51.9608 20.5842 50.5222 19.7607 50.4377 17.7001H57.4795C57.5437 17.354 57.5649 16.8981 57.5649 16.4218C57.5649 12.5178 55.7037 10.4367 52.8484 10.4367"/><path fill="#393536" d="M66.3047 10.6964L64.8252 16.5504C64.5704 17.6141 64.359 18.5898 64.1684 19.6289H64.1062C63.916 18.5898 63.7037 17.5923 63.4499 16.5504L61.9062 10.6964H58.5437L62.4988 22.7743H65.5225L69.5407 10.6964H66.3047"/><path fill="#393536" d="M4.56307 21.6673C3.96951 22.4236 3.52815 23.0937 3.19193 23.7217C3.10879 23.874 2.96295 24.3279 2.96295 24.6309V25.0731C2.96295 25.8261 3.56423 26.4442 4.30072 26.4442H24.8248C25.5606 26.4442 26.1615 25.8261 26.1615 25.0731V8.88168C14.9142 10.9149 8.09777 17.1596 4.56307 21.6673Z"/><path fill="#F47216" d="M74.4731 15.4444H79.7837V12.8218H74.4731V8.78892H80.1008V6.10005H71.3442V22.7743H80.4385V20.085H74.4731V15.4444"/><path fill="#F47216" d="M92.2657 10.6964H88.9447L87.8864 12.8643C87.5901 13.4936 87.317 14.1446 87.0212 14.7937H86.9778C86.681 14.1885 86.4084 13.5575 86.0691 12.886L84.9491 10.6964H81.4815L84.9699 16.6602L81.3951 22.7743H84.7358L85.8365 20.4325C86.1318 19.8026 86.4286 19.173 86.7037 18.5245H86.7471C87.0434 19.173 87.317 19.8026 87.6336 20.4325L88.796 22.7743H92.3081L88.7551 16.5289L92.2657 10.6964Z"/><path fill="#F47216" d="M99.1027 20.4958C98.0449 20.4958 97.0084 19.6523 97.0084 17.8955V15.6396C97.0084 14.1885 97.9605 13.0162 99.1664 13.0162C100.709 13.0162 101.513 14.5781 101.513 16.7254C101.513 18.8928 100.688 20.4958 99.1027 20.4958ZM100.202 10.4367C98.6785 10.4367 97.4736 11.1093 96.7126 12.3441H96.6691L96.5215 10.6964H93.7931C93.8361 11.8024 93.879 13.0809 93.879 14.6438V27.6101H97.0084V21.6034H97.0514C97.558 22.4041 98.5531 23.0126 99.841 23.0126C102.231 23.0126 104.684 21.0615 104.684 16.6153C104.684 12.9084 102.782 10.4367 100.202 10.4367"/><path fill="#F47216" d="M109.705 12.8006H109.618L109.493 10.6964H106.806C106.849 11.7794 106.891 12.9737 106.891 14.4693V22.7743H110.022V16.5289C110.022 14.4693 111.098 13.4936 112.516 13.4936C112.835 13.4936 113.088 13.515 113.321 13.5575V10.501C113.109 10.4574 112.917 10.4367 112.622 10.4367C111.522 10.4367 110.255 11.2377 109.705 12.8006Z"/><path fill="#F47216" d="M117.405 15.4661C117.491 14.2739 118.125 12.6695 119.626 12.6695C121.17 12.6695 121.657 14.2086 121.636 15.4661H117.405ZM119.816 10.4367C116.369 10.4367 114.424 13.4296 114.424 16.8981C114.424 20.6481 116.495 22.9909 120.134 22.9909C121.593 22.9909 122.967 22.7292 123.941 22.2982L123.497 20.085C122.693 20.3672 121.784 20.5842 120.621 20.5842C118.929 20.5842 117.491 19.7607 117.405 17.7001H124.448C124.511 17.354 124.533 16.8981 124.533 16.4218C124.533 12.5178 122.67 10.4367 119.816 10.4367"/><path fill="#F47216" d="M131.031 15.4893C129.678 14.9028 129.234 14.5553 129.234 13.8849C129.234 13.2328 129.741 12.7353 130.691 12.7353C131.58 12.7353 132.406 13.0809 132.913 13.3631L133.506 11.1093C132.829 10.7401 131.794 10.4367 130.588 10.4367C127.964 10.4367 126.274 12.0836 126.274 14.2517C126.274 15.5759 127.075 16.854 129.276 17.7644C130.566 18.3281 130.967 18.7183 130.967 19.4554C130.967 20.1948 130.441 20.6712 129.338 20.6712C128.367 20.6712 127.202 20.2367 126.59 19.8672L125.998 22.1878C126.779 22.6669 128.03 22.9909 129.318 22.9909C132.259 22.9909 133.949 21.4719 133.949 19.173C133.949 17.5057 133.019 16.3328 131.031 15.4893Z"/><path fill="#F47216" d="M140.405 15.4893C139.051 14.9028 138.609 14.5553 138.609 13.8849C138.609 13.2328 139.116 12.7353 140.067 12.7353C140.954 12.7353 141.781 13.0809 142.287 13.3631L142.88 11.1093C142.203 10.7401 141.167 10.4367 139.963 10.4367C137.338 10.4367 135.647 12.0836 135.647 14.2517C135.647 15.5759 136.449 16.854 138.65 17.7644C139.939 18.3281 140.341 18.7183 140.341 19.4554C140.341 20.1948 139.814 20.6712 138.713 20.6712C137.741 20.6712 136.576 20.2367 135.964 19.8672L135.372 22.1878C136.153 22.6669 137.404 22.9909 138.692 22.9909C141.632 22.9909 143.323 21.4719 143.323 19.173C143.323 17.5057 142.394 16.3328 140.405 15.4893"/><path fill="#F47216" d="M24.8248 2.65858H4.30072C3.56423 2.65858 2.96295 3.27549 2.96295 4.032V16.6465C7.02506 12.2666 14.2554 7.48157 25.2797 6.17716C25.5721 6.14354 26.1615 6.0041 26.1615 5.16648V4.032C26.1615 3.27549 25.5606 2.65858 24.8248 2.65858"/><path fill="#F47216" d="M146.037 9.76577H145.739V9.12694H145.986C146.263 9.12694 146.401 9.23175 146.401 9.44162C146.401 9.53934 146.368 9.61762 146.303 9.67696C146.238 9.7361 146.149 9.76577 146.037 9.76577ZM146.334 9.9881V9.97858C146.68 9.88998 146.853 9.69479 146.853 9.39195C146.853 9.19772 146.783 9.04603 146.641 8.93666C146.499 8.82689 146.293 8.7721 146.023 8.7721H145.319V10.9814H145.739V10.0945H145.923C146.056 10.0945 146.16 10.2041 146.235 10.4232L146.429 10.9814H146.929L146.671 10.3524C146.587 10.1457 146.474 10.0243 146.334 9.9881"/><path fill="#F47216" d="M147.094 10.9729C146.808 11.2624 146.46 11.4074 146.05 11.4074C145.637 11.4074 145.287 11.2642 145.001 10.978C144.715 10.6916 144.572 10.3325 144.572 9.90046C144.572 9.47621 144.712 9.11905 144.993 8.82867C145.274 8.53874 145.626 8.39358 146.05 8.39358C146.468 8.39358 146.817 8.53753 147.1 8.82553C147.383 9.11312 147.524 9.4715 147.524 9.90046C147.524 10.3263 147.382 10.6837 147.094 10.9729V10.9729ZM147.302 8.6396C146.967 8.30831 146.554 8.14295 146.06 8.14295C145.56 8.14295 145.14 8.31368 144.801 8.65525C144.462 8.99641 144.292 9.41312 144.292 9.90522C144.292 10.4116 144.46 10.8289 144.795 11.1576C145.129 11.4865 145.546 11.6509 146.045 11.6509C146.536 11.6509 146.952 11.4812 147.293 11.1424C147.634 10.8033 147.804 10.3862 147.804 9.89079C147.804 9.38801 147.637 8.97069 147.302 8.6396"/></svg>